<svg width="20" height="15" viewBox="0 0 20 15" fill="none" xmlns="http://www.w3.org/2000/svg">
<path d="M5.72566 8.41343L15.9366 2.733C16.4395 2.43376 16.5972 2.76756 16.3701 2.99811L7.89583 9.75726L7.46102 13.1308L5.72566 8.41343ZM18.6784 0.121995L0.753582 6.13999C-0.22674 6.39092 -0.195504 7.24951 0.529554 7.45602L5.02084 8.69893L6.73921 13.3705C6.94825 13.8818 7.11892 14.0745 7.47564 14.0788C7.8506 14.0835 7.99417 13.962 8.3835 13.6567C8.83942 13.277 9.53387 12.6796 10.6311 11.7336L15.3028 14.7941C16.1626 15.2147 16.7833 14.9968 16.9974 14.0862L19.9262 1.23994C20.2402 0.123878 19.5009 -0.209033 18.6784 0.121995Z" fill="#D14D24"/>
</svg>
