<svg width="20" height="20" viewBox="0 0 20 20" fill="none" xmlns="http://www.w3.org/2000/svg">
<path fill-rule="evenodd" clip-rule="evenodd" d="M14.785 11.9562C14.5389 11.8225 13.3299 11.175 13.1032 11.0835C12.8765 10.9922 12.7111 10.9447 12.5343 11.1875C12.3578 11.4295 11.8562 11.9719 11.7042 12.1324C11.5516 12.293 11.4047 12.3081 11.1584 12.174C10.9129 12.0405 10.1151 11.7478 9.18973 10.8652C8.46979 10.1784 7.99752 9.34552 7.86052 9.09136C7.72352 8.83694 7.85961 8.70733 7.9897 8.58821C8.10663 8.48072 8.25145 8.30662 8.38219 8.16628C8.51268 8.02582 8.55869 7.92389 8.64851 7.76092C8.73819 7.5982 8.70208 7.45127 8.64394 7.32451C8.5858 7.19827 8.13087 5.95553 7.94082 5.45005C7.75077 4.94458 7.53907 5.01972 7.39282 5.0139C7.24656 5.00899 7.08036 4.9817 6.91312 4.97549C6.74601 4.96928 6.47201 5.02153 6.2332 5.26173C5.99413 5.50205 5.32386 6.07931 5.27772 7.30343C5.23144 8.52664 6.08473 9.7426 6.20374 9.91282C6.32288 10.0836 7.83315 12.7359 10.343 13.8268C12.8534 14.9173 12.8666 14.5847 13.3271 14.5603C13.788 14.5362 14.8327 14.0136 15.0637 13.4409C15.2945 12.8683 15.3129 12.3704 15.2543 12.2644C15.1955 12.1584 15.031 12.0896 14.785 11.9562ZM10.1813 17.8528C8.52154 17.8528 6.97556 17.3587 5.68468 16.5118L2.5437 17.5096L3.56462 14.4978C2.58619 13.1607 2.00821 11.5177 2.00821 9.7426C2.00821 5.27039 5.67477 1.63194 10.1813 1.63194C14.6887 1.63194 18.3551 5.27039 18.3551 9.7426C18.3551 14.2146 14.6887 17.8528 10.1813 17.8528ZM10.1813 0C4.75917 0 0.363422 4.36175 0.363422 9.7426C0.363422 11.5832 0.878185 13.3047 1.77214 14.7732L0 20L5.43583 18.2734C6.8426 19.0449 8.46014 19.4851 10.1813 19.4851C15.6044 19.4851 20 15.1228 20 9.7426C20 4.36175 15.6044 0 10.1813 0Z" fill="#D14D24"/>
</svg>
