<?xml version="1.0" encoding="UTF-8" standalone="no"?>
<!-- Created with Inkscape (http://www.inkscape.org/) -->

<svg
   version="1.1"
   id="svg2"
   xml:space="preserve"
   width="388.58792"
   height="223.30423"
   viewBox="0 0 388.58792 223.30423"
   sodipodi:docname="e21b3e6ac292440d977151395503d8ba.eps"
   xmlns:inkscape="http://www.inkscape.org/namespaces/inkscape"
   xmlns:sodipodi="http://sodipodi.sourceforge.net/DTD/sodipodi-0.dtd"
   xmlns="http://www.w3.org/2000/svg"
   xmlns:svg="http://www.w3.org/2000/svg"><defs
     id="defs6" /><sodipodi:namedview
     id="namedview4"
     pagecolor="#ffffff"
     bordercolor="#666666"
     borderopacity="1.0"
     inkscape:pageshadow="2"
     inkscape:pageopacity="0.0"
     inkscape:pagecheckerboard="0" /><g
     id="g8"
     inkscape:groupmode="layer"
     inkscape:label="ink_ext_XXXXXX"
     transform="matrix(1.3333333,0,0,-1.3333333,-8.1021088e-5,223.30266)"><g
       id="g10"
       transform="scale(0.1)"><path
         d="M 291.055,919.727 H 152.953 v 216.123 h 138.102 c 63.144,0 114.508,-48.48 114.508,-108.06 0,-59.591 -51.364,-108.063 -114.508,-108.063 z m 0,313.233 H 53.6289 V 683.621 h 99.3241 v 139.734 h 138.102 c 117.91,0 213.836,91.711 213.836,204.435 0,113.14 -95.926,205.17 -213.836,205.17"
         style="fill:#bf1b2c;fill-opacity:1;fill-rule:nonzero;stroke:none"
         id="path12" /><path
         d="m 647.59,1135.85 h 141.051 c 62.488,0 113.859,-48.55 114.504,-108.06 0,-59.591 -51.364,-108.063 -114.504,-108.063 H 647.59 Z m 354.88,-108.06 c 0,113.14 -95.919,205.17 -213.829,205.17 H 548.258 V 683.621 h 99.332 v 139.734 h 144.004 c 1.543,0 3.383,0 5.367,0.063 L 893.094,683.621 H 1015.35 L 898.563,852.266 c 64.496,37.586 103.907,103.496 103.907,175.524"
         style="fill:#bf1b2c;fill-opacity:1;fill-rule:nonzero;stroke:none"
         id="path14" /><path
         d="m 2096.72,1132.9 v 100.06 H 1675.51 V 683.621 h 99.32 v 223.992 h 232.66 v 100.047 h -232.66 v 125.24 h 321.89"
         style="fill:#bf1b2c;fill-opacity:1;fill-rule:nonzero;stroke:none"
         id="path16" /><path
         d="m 761.887,297.41 h 173.129 c 34.074,0 61.789,-28.789 61.789,-64.18 0,-34.48 -27.715,-62.531 -61.789,-62.531 H 761.887 Z m 159.125,99.309 H 761.887 v 125.242 h 159.125 c 34.164,0 61.957,-28.383 61.957,-63.27 0,-34.171 -27.793,-61.972 -61.957,-61.972 z m 120.178,-43.231 c 27.11,27.742 41.85,64.492 41.85,105.203 0,89.239 -72.69,161.84 -162.028,161.84 H 662.555 V 71.3789 h 272.461 c 89.244,0 161.844,72.6011 161.844,161.8511 0,46.579 -20.52,90.36 -55.67,120.258"
         style="fill:#231f20;fill-opacity:1;fill-rule:nonzero;stroke:none"
         id="path18" /><path
         d="m 1151.3,71.3789 h 99.32 V 620.531 H 1151.3 V 71.3789"
         style="fill:#231f20;fill-opacity:1;fill-rule:nonzero;stroke:none"
         id="path20" /><path
         d="M 1552.41,209.18 1383.47,620.531 H 1273.64 L 1502.05,71.3789 h 100.24 l 61.49,149.0191 7.39,17.743 157.78,382.39 H 1720.82 L 1552.41,209.18"
         style="fill:#231f20;fill-opacity:1;fill-rule:nonzero;stroke:none"
         id="path22" /><path
         d="m 2536.15,248.871 96.99,224.578 96.98,-224.578 z m 142.27,371.66 h -90.38 L 2360.31,91.0391 2136.89,346.582 2377.6,620.531 h -132.12 l -293.94,-334.25 v 334.25 h -99.32 V 71.3789 h 99.32 V 134.98 l 118.22,135.352 174.41,-198.9531 h 216.1 l 33.74,77.4301 h 279.09 l 33,-77.4301 h 108.31 L 2678.42,620.531"
         style="fill:#231f20;fill-opacity:1;fill-rule:nonzero;stroke:none"
         id="path24" /><path
         d="m 2638.16,1276.54 c 0,0.12 -0.25,0.48 -0.37,0.84 -4.8,-4.44 -9.48,-9.12 -13.92,-14.17 0.24,-0.35 0.36,-0.71 0.6,-1.07 4.44,4.92 9,9.72 13.69,14.4 z m 57.85,5.28 c -2.77,-3.12 -6.97,-7.56 -12.37,-12.72 -5.88,-5.64 -12.84,-12.49 -20.64,-19.68 -0.72,0.35 -1.68,0.96 -2.4,1.31 8.16,7.21 15.72,13.81 22.08,19.45 5.4,5.04 9.96,9.12 12.97,12 1.68,1.56 2.75,2.64 3.72,3.36 -0.73,-0.72 -1.93,-2.16 -3.36,-3.72 z m -51.86,-49.21 c -14.75,-12.84 -29.65,-25.56 -41.4,-34.44 -5.77,-4.69 -10.69,-8.17 -14.41,-10.56 -1.68,-1.21 -3.11,-2.05 -4.2,-2.41 0.84,0.6 2.4,1.57 3.97,2.77 3.59,2.64 8.16,6.72 13.68,11.28 11.28,9.6 26.04,22.32 40.56,35.4 1.44,1.33 3,2.52 4.45,3.84 0.71,-0.72 1.43,-1.32 2.39,-1.68 -1.68,-1.2 -3.36,-2.76 -5.04,-4.2 z m -777.73,-750.008 -48.73,-48.25 48.73,50.168 z m 844.7,837.028 c -19.56,15.72 -51.48,-7.32 -75.97,-30.37 0.6,-4.44 1.33,-8.28 2.64,-11.88 4.8,5.04 9.72,9.6 14.77,14.28 6.36,5.88 13.08,11.4 20.16,16.2 3.6,2.41 7.44,4.81 11.52,6.25 0.96,0.35 1.92,0.6 3,0.84 -1.08,-0.36 -2.04,-0.72 -3,-1.09 -4.08,-1.55 -7.8,-3.83 -11.28,-6.23 -7.21,-4.93 -13.68,-10.68 -20.05,-16.57 -5.04,-4.56 -9.96,-9.6 -14.75,-14.52 1.43,-4.08 3.59,-7.56 6.35,-11.04 14.41,15.6 26.29,28.2 27.73,29.64 4.56,4.44 11.77,5.28 15.96,2.04 4.32,-3.48 4.09,-9.96 -0.36,-14.4 -1.56,-1.68 -14.88,-14.04 -31.69,-29.16 -4.2,-4.08 -8.87,-8.05 -13.43,-12.13 -27.25,-24.48 -57.13,-50.53 -59.54,-48.72 -2.4,2.04 24.13,32.16 48.85,59.17 -3,3.6 -5.4,6.84 -7.56,10.2 -2.52,-2.76 -5.16,-5.76 -7.68,-8.52 -22.92,-25.81 -44.65,-52.93 -65.89,-80.42 l -0.13,-0.11 -182.43,-185.442 C 2307.37,925.84 2246.89,863.672 2185.56,802.461 L 2001.92,618.109 1937.35,553.41 v 3.719 l 62.17,63.25 182.55,185.68 c 60.62,61.925 121.94,123.136 183.16,184.711 l 183.63,184.35 c 21.37,27.49 43.56,53.77 66.97,79.46 2.52,2.88 5.27,5.64 8.04,8.63 -1.8,3.13 -3.24,6.49 -4.32,9.97 -26.04,-28.57 -64.93,-76.45 -85.94,-97.7 -105.49,-106.34 -395.71,-399.667 -596.26,-606.351 -25.44,-26.039 -49.2,-50.758 -70.93,-73.328 -82.45,-85.571 -136.83,-143.903 -134.18,-145.832 2.39,-1.91 55.2,46.461 134.18,120.871 21.73,20.648 45.73,43.32 70.93,67.449 210.51,200.434 522.33,503.371 632.03,610.071 19.32,18.96 66.49,56.77 94.58,81.13 6.24,5.4 11.4,10.08 15.24,13.8 l 1.32,1.32 c 19.92,19.69 51.49,58.45 30.6,75.02"
         style="fill:#231f20;fill-opacity:1;fill-rule:nonzero;stroke:none"
         id="path26" /><path
         d="m 2638.16,1276.54 c -4.69,-4.68 -9.25,-9.48 -13.69,-14.4 -0.24,0.36 -0.36,0.72 -0.6,1.07 4.44,5.05 9.12,9.73 13.92,14.17 0.12,-0.36 0.37,-0.72 0.37,-0.84"
         style="fill:#ffffff;fill-opacity:1;fill-rule:nonzero;stroke:none"
         id="path28" /><path
         d="m 2663,1249.4 c -4.42,-4.06 -9.21,-8.3 -13.82,-12.54 -0.93,0.37 -1.66,0.93 -2.4,1.66 4.79,4.05 9.4,8.3 13.83,12.17 0.73,-0.37 1.66,-0.92 2.39,-1.29"
         style="fill:#ffffff;fill-opacity:1;fill-rule:nonzero;stroke:none"
         id="path30" /><path
         d="m 2637.79,1277.38 c -4.8,-4.44 -9.48,-9.12 -13.92,-14.17 -1.8,3.13 -3.24,6.49 -4.32,9.97 3.96,4.2 7.68,8.16 11.04,11.4 1.44,1.56 3.12,3 4.56,4.68 0.6,-4.44 1.33,-8.28 2.64,-11.88"
         style="fill:#231f20;fill-opacity:1;fill-rule:nonzero;stroke:none"
         id="path32" /><path
         d="m 2630.59,1284.58 c -3.36,-3.24 -7.08,-7.2 -11.04,-11.4 -6.12,18.96 -2.28,43.57 8.4,90.02 15.13,66.01 15.49,105.73 -8.28,155.18 -38.53,80.9 -215.67,135.26 -397.27,138.27 -325.97,0 -607.43,-190.47 -739.45,-466.04 -10.32,-21.73 -19.92,-43.93 -28.44,-66.73 -33.13,-89.3 -51.37,-185.681 -51.37,-286.497 0,-23.043 0.84,-45.969 2.88,-68.649 1.92,-24.25 5.04,-48.492 9.12,-72.257 26.16,-150.375 93.26,-286.848 189.51,-397.266 16.92,-19.32 34.8,-37.93 53.41,-55.691 61.45,-58.211 131.42,-107.059 208.36,-144.1411 9.96,-4.8086 20.05,-9.3672 30.24,-13.8086 99.74,-43.332 209.92,-67.332 325.74,-67.332 4.93,0 9,-4.1992 9,-9.2383 0,-4.91797 -4.07,-9.0117188 -9,-9.0117188 -221.08,0 -421.99,85.7109188 -571.66,225.8827188 -18.84,17.289 -36.97,35.527 -53.65,54.859 -101.3,113.411 -171.99,254.68 -199.47,410.586 -4.08,23.403 -7.2,47.051 -9.48,71.172 -2.17,24.489 -3.25,49.571 -3.25,74.895 0,104.66 19.09,204.757 54.37,297.167 8.41,22.45 17.88,44.41 28.21,66.02 135.27,280.61 422.47,474.2 754.93,474.2 188.43,-3 370.86,-59.29 413.71,-148.71 25.81,-53.77 25.57,-97.33 9.36,-166.95 -7.92,-34.44 -11.64,-55.08 -10.32,-69.85 -1.44,-1.68 -3.12,-3.12 -4.56,-4.68"
         style="fill:#bf1b2c;fill-opacity:1;fill-rule:nonzero;stroke:none"
         id="path34" /><path
         d="m 2644.51,1265.5 c -4.2,-4.32 -8.28,-8.89 -12.48,-13.56 -3,3.6 -5.4,6.84 -7.56,10.2 4.44,4.92 9,9.72 13.69,14.4 1.43,-4.08 3.59,-7.56 6.35,-11.04"
         style="fill:#231f20;fill-opacity:1;fill-rule:nonzero;stroke:none"
         id="path36" /><path
         d="m 2638.16,1276.54 c -4.69,-4.68 -9.25,-9.48 -13.69,-14.4 -0.24,0.36 -0.36,0.72 -0.6,1.07 4.44,5.05 9.12,9.73 13.92,14.17 0.12,-0.36 0.37,-0.72 0.37,-0.84"
         style="fill:#bf1b2c;fill-opacity:1;fill-rule:nonzero;stroke:none"
         id="path38" /><path
         d="m 2840.39,1266.34 c -39.13,-35.17 -123.75,-57.49 -176.43,-36.85 -5.4,2.04 -10.33,4.44 -14.77,7.32 -0.96,0.36 -1.68,0.96 -2.39,1.68 -1.45,0.96 -2.77,1.92 -4.08,3 -2.04,1.44 -3.85,3.12 -5.53,4.92 -1.8,1.92 -3.48,3.73 -5.16,5.53 4.2,4.67 8.28,9.24 12.48,13.56 1.68,-2.29 3.61,-4.32 5.65,-6.48 1.79,-1.92 3.84,-3.72 5.99,-5.4 1.57,-0.84 3.01,-2.05 4.45,-2.89 0.72,-0.35 1.68,-0.96 2.4,-1.31 5.04,-2.65 10.32,-4.69 16.2,-6.13 45.97,-12 116.9,7.57 148.95,36.49 3.72,3.36 9.48,3 12.72,-0.72 3.36,-3.72 3.12,-9.36 -0.48,-12.72"
         style="fill:#bf1b2c;fill-opacity:1;fill-rule:nonzero;stroke:none"
         id="path40" /><path
         d="m 213.547,638.91 h -0.008 C 185.516,638.898 158.02,633.578 131.82,623.059 60.8906,594.59 15.0469,537.328 2.72656,461.809 -1.83984,433.82 0.214844,409.07 2.50781,388.059 8.39844,333.879 30.3711,285.059 67.8047,242.961 90.3086,217.648 114.93,196.609 136.648,178.051 165.383,153.5 194.027,128.949 222.676,104.41 l 25.836,-22.1405 c 0.703,-0.6093 1.39,-1.2382 2.093,-1.8789 l 2.301,-2.0586 63.391,-56.4726 66.008,53.3789 c 1.793,1.4219 3.101,2.5 4.386,3.6015 l 33.852,29.0902 c 25.738,22.129 51.477,44.261 77.277,66.308 l 5.539,4.731 c 19.543,16.672 41.696,35.551 62.278,57.859 24.558,26.621 42.254,53.992 54.09,83.672 10.019,25.121 15.937,51.711 18.097,81.281 1.25,17.11 2.117,39.93 -2.293,64.801 -17.687,99.719 -105.75,172.109 -209.39,172.109 -12.364,0 -24.875,-1.043 -37.176,-3.082 -24.617,-4.089 -47.969,-12.277 -69.531,-24.269 -32.286,17.859 -68.789,27.57 -105.887,27.57 z m -0.008,-100 c 31.988,0 63.149,-13.031 86.363,-37.25 6.493,-6.762 11.887,-14.512 17.774,-21.801 0.547,-0.687 1.035,-1.41 1.715,-2.339 3.906,5.218 7.336,10.242 11.23,14.902 19.445,23.308 43.734,39.387 74.731,44.547 7.003,1.16 13.957,1.722 20.789,1.722 54.343,0 101.371,-35.703 110.925,-89.582 2.364,-13.328 1.997,-26.687 1.028,-40.039 -1.289,-17.66 -4.629,-34.929 -11.25,-51.531 -7.922,-19.848 -20.125,-37.098 -34.703,-52.898 -18.196,-19.719 -38.868,-36.922 -59.297,-54.379 -37.18,-31.782 -74.227,-63.703 -111.324,-95.571 -0.602,-0.519 -1.231,-1 -2.09,-1.691 -1.992,1.77 -3.891,3.531 -5.86,5.211 -37.293,31.949 -74.57,63.918 -111.91,95.828 -20.586,17.582 -41.16,35.16 -59.125,55.371 -23.012,25.879 -36.918,55.5 -40.621,89.469 -1.699,15.601 -3.0351,31.242 -0.492,46.832 6.519,39.98 28.676,68.91 67.641,84.551 14.527,5.828 29.593,8.648 44.476,8.648"
         style="fill:#231f20;fill-opacity:1;fill-rule:nonzero;stroke:none"
         id="path42" /><path
         d="m 1229.62,1251.57 h -0.01 c -28.03,0 -55.52,-5.33 -81.72,-15.84 -70.93,-28.46 -116.78,-85.73 -129.09,-161.25 -4.57,-27.98 -2.51,-52.74 -0.22,-73.75 5.89,-54.179 27.86,-103 65.3,-145.097 22.5,-25.313 47.12,-46.348 68.84,-64.906 28.73,-24.555 57.38,-49.102 86.03,-73.653 l 25.83,-22.14 c 0.71,-0.606 1.39,-1.235 2.1,-1.871 l 2.3,-2.063 63.38,-56.469 66.02,53.375 c 1.79,1.434 3.1,2.508 4.38,3.606 l 33.85,29.097 c 25.74,22.121 51.48,44.246 77.28,66.301 l 5.54,4.731 c 19.55,16.664 41.69,35.554 62.28,57.859 24.56,26.621 42.26,53.988 54.09,83.676 10.02,25.113 15.94,51.699 18.1,81.274 1.25,17.11 2.12,39.93 -2.3,64.8 -17.68,99.73 -105.75,172.11 -209.39,172.11 -12.37,0 -24.87,-1.04 -37.17,-3.08 -24.62,-4.09 -47.97,-12.28 -69.53,-24.26 -32.29,17.86 -68.79,27.55 -105.89,27.55 z m -0.01,-100 c 31.99,0 63.14,-13.02 86.36,-37.23 6.49,-6.77 11.89,-14.51 17.78,-21.81 0.55,-0.68 1.04,-1.41 1.71,-2.34 3.91,5.21 7.34,10.24 11.23,14.91 19.45,23.29 43.74,39.38 74.73,44.53 7,1.16 13.96,1.73 20.79,1.73 54.34,0 101.38,-35.7 110.93,-89.57 2.36,-13.33 2,-26.69 1.02,-40.06 -1.29,-17.65 -4.63,-34.917 -11.25,-51.511 -7.92,-19.864 -20.12,-37.106 -34.7,-52.91 -18.19,-19.719 -38.86,-36.918 -59.29,-54.379 -37.19,-31.785 -74.23,-63.707 -111.33,-95.571 -0.6,-0.515 -1.23,-0.996 -2.09,-1.691 -1.99,1.777 -3.89,3.523 -5.86,5.211 -37.29,31.949 -74.57,63.918 -111.9,95.828 -20.6,17.594 -41.17,35.172 -59.14,55.371 -23,25.879 -36.91,55.504 -40.62,89.472 -1.69,15.6 -3.03,31.24 -0.49,46.83 6.52,39.98 28.68,68.91 67.64,84.54 14.53,5.83 29.6,8.65 44.48,8.65"
         style="fill:#bf1b2c;fill-opacity:1;fill-rule:nonzero;stroke:none"
         id="path44" /></g></g></svg>
