<svg width="46" height="46" viewBox="0 0 46 46" fill="none" xmlns="http://www.w3.org/2000/svg">
<g filter="url(#filter0_d)">
<path d="M7 19C7 12.506 7 9.25904 8.58669 6.94276C9.21976 6.0186 10.0186 5.21976 10.9428 4.58669C13.259 3 16.506 3 23 3C29.494 3 32.741 3 35.0572 4.58669C35.9814 5.21976 36.7802 6.0186 37.4133 6.94276C39 9.25904 39 12.506 39 19C39 25.494 39 28.741 37.4133 31.0572C36.7802 31.9814 35.9814 32.7802 35.0572 33.4133C32.741 35 29.494 35 23 35C16.506 35 13.259 35 10.9428 33.4133C10.0186 32.7802 9.21976 31.9814 8.58669 31.0572C7 28.741 7 25.494 7 19Z" fill="#23D366"/>
</g>
<path fill-rule="evenodd" clip-rule="evenodd" d="M27.5672 20.1628C27.358 20.0491 26.3304 19.4987 26.1377 19.421C25.945 19.3434 25.8044 19.303 25.6542 19.5094C25.5041 19.7151 25.0778 20.1761 24.9486 20.3125C24.8188 20.4491 24.694 20.4619 24.4847 20.3479C24.2759 20.2345 23.5978 19.9857 22.8113 19.2354C22.1993 18.6516 21.7979 17.9437 21.6814 17.7277C21.565 17.5114 21.6807 17.4012 21.7912 17.3C21.8906 17.2086 22.0137 17.0606 22.1249 16.9413C22.2358 16.8219 22.2749 16.7353 22.3512 16.5968C22.4275 16.4585 22.3968 16.3336 22.3474 16.2258C22.2979 16.1185 21.9112 15.0622 21.7497 14.6325C21.5882 14.2029 21.4082 14.2668 21.2839 14.2618C21.1596 14.2576 21.0183 14.2344 20.8762 14.2292C20.7341 14.2239 20.5012 14.2683 20.2982 14.4725C20.095 14.6767 19.5253 15.1674 19.4861 16.2079C19.4467 17.2476 20.172 18.2812 20.2732 18.4259C20.3745 18.571 21.6582 20.8255 23.7915 21.7528C25.9254 22.6797 25.9366 22.397 26.3281 22.3762C26.7198 22.3558 27.6078 21.9115 27.8041 21.4248C28.0004 20.9381 28.016 20.5148 27.9661 20.4248C27.9161 20.3346 27.7763 20.2761 27.5672 20.1628ZM23.6541 25.1748C22.2433 25.1748 20.9292 24.7549 19.832 24.0351L17.1621 24.8832L18.0299 22.3231C17.1983 21.1866 16.707 19.7901 16.707 18.2812C16.707 14.4798 19.8236 11.3871 23.6541 11.3871C27.4854 11.3871 30.6018 14.4798 30.6018 18.2812C30.6018 22.0824 27.4854 25.1748 23.6541 25.1748ZM23.6541 10C19.0453 10 15.3089 13.7075 15.3089 18.2812C15.3089 19.8457 15.7465 21.309 16.5063 22.5572L15 27L19.6205 25.5324C20.8162 26.1882 22.1911 26.5623 23.6541 26.5623C28.2637 26.5623 32 22.8544 32 18.2812C32 13.7075 28.2637 10 23.6541 10Z" fill="white"/>
<defs>
<filter id="filter0_d" x="0" y="0" width="46" height="46" filterUnits="userSpaceOnUse" color-interpolation-filters="sRGB">
<feFlood flood-opacity="0" result="BackgroundImageFix"/>
<feColorMatrix in="SourceAlpha" type="matrix" values="0 0 0 0 0 0 0 0 0 0 0 0 0 0 0 0 0 0 127 0" result="hardAlpha"/>
<feOffset dy="4"/>
<feGaussianBlur stdDeviation="3.5"/>
<feColorMatrix type="matrix" values="0 0 0 0 0.137255 0 0 0 0 0.827451 0 0 0 0 0.4 0 0 0 0.26 0"/>
<feBlend mode="normal" in2="BackgroundImageFix" result="effect1_dropShadow"/>
<feBlend mode="normal" in="SourceGraphic" in2="effect1_dropShadow" result="shape"/>
</filter>
</defs>
</svg>
